<svg width="263" height="20" viewBox="0 0 263 20" fill="none" xmlns="http://www.w3.org/2000/svg">
<path d="M236.5 20C228.37 20 224.38 15.6126 221.5 12.4043C218.7 9.3415 217.57 8.42266 215.5 8.42266C213.43 8.42266 212.31 9.31853 209.5 12.4043C206.59 15.6126 202.61 20 194.5 20C186.39 20 182.39 15.6126 179.5 12.4043C176.7 9.3415 175.58 8.42266 173.5 8.42266C171.42 8.42266 170.31 9.31853 167.5 12.4043C164.6 15.6126 160.61 20 152.5 20C144.39 20 140.39 15.6049 137.5 12.4043C134.7 9.3415 133.58 8.42266 131.5 8.42266C129.42 8.42266 128.31 9.31853 125.5 12.4043C122.6 15.6049 118.61 20 110.5 20C102.39 20 98.39 15.6049 95.5 12.4043C92.7 9.3415 91.58 8.42266 89.5 8.42266C87.42 8.42266 86.31 9.31853 83.5 12.4043C80.59 15.6049 76.61 20 68.5 20C60.39 20 56.39 15.6126 53.5 12.4043C50.7 9.3415 49.58 8.42266 47.5 8.42266C45.42 8.42266 44.32 9.31853 41.5 12.4043C38.6 15.6049 34.61 20 26.5 20C18.39 20 14.39 15.6049 11.5 12.4043C8.71 9.3415 7.58 8.42266 5.5 8.42266C4.04131 8.42266 2.64236 7.97897 1.61091 7.18919C0.579463 6.39942 0 5.32825 0 4.21133C0 3.09442 0.579463 2.02325 1.61091 1.23347C2.64236 0.443693 4.04131 0 5.5 0C13.63 0 17.61 4.3951 20.5 7.59571C23.29 10.6585 24.42 11.5773 26.5 11.5773C28.58 11.5773 29.68 10.6815 32.5 7.59571C35.39 4.3951 39.37 0 47.49 0C55.61 0 59.6 4.3951 62.49 7.59571C65.29 10.6585 66.41 11.5773 68.49 11.5773C70.57 11.5773 71.68 10.6815 74.49 7.59571C77.38 4.3951 81.36 0 89.49 0C97.62 0 101.6 4.3951 104.49 7.59571C107.28 10.6585 108.41 11.5773 110.49 11.5773C112.57 11.5773 113.67 10.6815 116.49 7.59571C119.4 4.3951 123.38 0 131.49 0C139.6 0 143.59 4.38744 146.49 7.59571C149.29 10.6585 150.41 11.5773 152.49 11.5773C154.57 11.5773 155.67 10.6815 158.49 7.59571C161.4 4.3951 165.38 0 173.49 0C181.6 0 185.6 4.3951 188.49 7.59571C191.28 10.6585 192.41 11.5773 194.49 11.5773C196.57 11.5773 197.68 10.6815 200.49 7.59571C203.4 4.38744 207.38 0 215.49 0C223.6 0 227.6 4.38744 230.49 7.59571C233.29 10.6585 234.41 11.5773 236.49 11.5773C238.57 11.5773 239.67 10.6815 242.49 7.59571C245.4 4.38744 249.38 0 257.49 0C258.949 0 260.348 0.443693 261.379 1.23347C262.411 2.02325 262.99 3.09442 262.99 4.21133C262.99 5.32825 262.411 6.39942 261.379 7.18919C260.348 7.97897 258.949 8.42266 257.49 8.42266C255.43 8.42266 254.3 9.31853 251.49 12.4043C248.61 15.6126 244.62 20 236.5 20Z" fill="#FFF8B2"/>
</svg>
